<?xml version="1.0" encoding="utf-8"?>
<!-- Generator: Adobe Illustrator 18.1.0, SVG Export Plug-In . SVG Version: 6.00 Build 0)  -->
<!DOCTYPE svg PUBLIC "-//W3C//DTD SVG 1.1//EN" "http://www.w3.org/Graphics/SVG/1.1/DTD/svg11.dtd">
<svg version="1.1" id="Layer_1" xmlns="http://www.w3.org/2000/svg" xmlns:xlink="http://www.w3.org/1999/xlink" x="0px" y="0px"
	 viewBox="274.3 267.3 179.1 25.9" enable-background="new 274.3 267.3 179.1 25.9" xml:space="preserve">
<g>
	<path fill="#3ABFE6" d="M281.2,278.5l1.3-1.1l-1.7,0.6l-0.2-0.2l0.7-0.7l-0.9,0.4c-3.6,1.4-6.1,4.8-6.1,8.9c0,2.7,1.1,5.2,3,6.9
		c-0.8-1.4-1.2-3-1.2-4.7c0-4,2.5-7.6,6-9l0.4-1.1l-1,0.5L281.2,278.5z"/>
	<path fill="#3ABFE6" d="M282,267.3l4.8,5.2l-3.4,6.7l7.2-1.3l3.3,7.9l13.9-18.2L282,267.3z M287.2,275.8l2.2-3.9l13.1-3.1
		L287.2,275.8z"/>
</g>
<g>
	<path fill="#454B4D" d="M320.4,281.1l0.3-2.8h-0.1l-0.9,2.2l-3,5.2h-0.9l-3.1-5.2l-0.9-2.2h-0.1l0.4,2.8v7.3h-2.6v-14h2.5l3.7,6.4
		l0.7,1.6h0.1l0.6-1.6l3.5-6.4h2.5v14h-2.7V281.1z"/>
	<path fill="#454B4D" d="M326.5,274.3h2.7v14h-2.7V274.3z"/>
	<path fill="#454B4D" d="M336.2,281l-1.1-2.2H335l0.3,2.2v7.3h-2.6v-14.1h2l5.3,7.5l1.1,2.1h0.1l-0.3-2.1v-7.4h2.6v14.1h-2
		L336.2,281z"/>
	<path fill="#454B4D" d="M354.4,274.3h2.6v9c0,0.9-0.1,1.7-0.4,2.3c-0.2,0.7-0.6,1.2-1,1.6c-0.4,0.4-0.9,0.7-1.6,0.9
		c-0.6,0.2-1.3,0.3-2,0.3c-3.5,0-5.3-1.6-5.3-4.9v-9.4h2.7v8.8c0,0.5,0,1,0.1,1.4c0.1,0.4,0.3,0.7,0.5,0.9c0.2,0.2,0.5,0.4,0.8,0.5
		c0.3,0.1,0.7,0.1,1.1,0.1c0.8,0,1.4-0.2,1.8-0.7c0.4-0.5,0.6-1.2,0.6-2.3V274.3z"/>
	<path fill="#454B4D" d="M370.2,276.8h-4.1v11.6h-2.7v-11.6h-4.1v-2.4h10.9L370.2,276.8L370.2,276.8z"/>
	<path fill="#454B4D" d="M372.5,274.3h8.3v2.4h-5.6v3.3h5.1v2.4h-5.1v3.4h5.7v2.4h-8.4L372.5,274.3L372.5,274.3z"/>
	<path fill="#454B4D" d="M394.7,281.1l0.3-2.8h-0.1l-0.9,2.2l-3,5.2h-0.9l-3.1-5.2l-0.9-2.2h-0.1l0.4,2.8v7.3h-2.6v-14h2.5l3.7,6.4
		l0.7,1.6h0.1l0.6-1.6l3.5-6.4h2.5v14h-2.7L394.7,281.1L394.7,281.1z"/>
	<path fill="#454B4D" d="M407.8,285.2h-4.3l-1.1,3.1h-2.7l5-14.1h2l5,14.1h-2.9L407.8,285.2z M404.2,283h3l-1-3.1l-0.4-2.2h-0.1
		l-0.4,2.2L404.2,283z"/>
	<path fill="#454B4D" d="M414.1,274.3h2.7v14h-2.7V274.3z"/>
	<path fill="#454B4D" d="M429.2,288.3h-8.9v-14h2.7v11.6h6.1L429.2,288.3L429.2,288.3z"/>
	<path fill="#454B4D" d="M431.5,274.3h8.3v2.4h-5.6v3.3h5.1v2.4h-5.1v3.4h5.7v2.4h-8.4V274.3z"/>
	<path fill="#454B4D" d="M442.8,274.5c0.3-0.1,0.6-0.1,1-0.1s0.7-0.1,1.1-0.1c0.4,0,0.7,0,1-0.1c0.3,0,0.6,0,0.9,0
		c0.7,0,1.3,0.1,1.9,0.2s1.2,0.3,1.7,0.6s0.9,0.7,1.2,1.2c0.3,0.5,0.4,1.2,0.4,1.9c0,1.1-0.3,2.1-0.8,2.8c-0.5,0.7-1.2,1.2-2.1,1.5
		l1,0.6l3.2,5.3h-3.2l-3.2-5.5l-1.4-0.3v5.7h-2.7L442.8,274.5L442.8,274.5z M447,276.6c-0.3,0-0.6,0-0.8,0s-0.5,0-0.6,0.1v4.1h1.2
		c0.8,0,1.4-0.2,1.8-0.5c0.5-0.3,0.7-0.9,0.7-1.7c0-0.6-0.2-1.1-0.6-1.4C448.3,276.8,447.8,276.6,447,276.6z"/>
</g>
</svg>
